<?xml version="1.0" encoding="UTF-8"?>
<svg version="1.1" xmlns="http://www.w3.org/2000/svg" width="192" height="192">
<path d="M0 0 C0.99 0.33 1.98 0.66 3 1 C3.73046875 3.06640625 3.73046875 3.06640625 4.1875 5.5625 C4.34605469 6.38878906 4.50460938 7.21507812 4.66796875 8.06640625 C4.77753906 8.70449219 4.88710937 9.34257813 5 10 C5.99 10 6.98 10 8 10 C8.33 9.01 8.66 8.02 9 7 C12.21451269 5.39274365 15.43612536 5.94251815 19 6 C20 9 20 9 18.8125 11.5 C17.05849431 13.9193182 15.48205427 15.37382651 13 17 C14.65 17.66 16.3 18.32 18 19 C18 20.98 18 22.96 18 25 C19.134375 25.309375 20.26875 25.61875 21.4375 25.9375 C25 27 25 27 26 28 C25.63696413 33.44553805 24.85807282 36.33017586 22 41 C21.22535596 42.91977001 20.49533154 44.85818903 19.8125 46.8125 C19.46832031 47.78832031 19.12414062 48.76414063 18.76953125 49.76953125 C18.51558594 50.50558594 18.26164062 51.24164063 18 52 C17.34 52 16.68 52 16 52 C15.855625 52.639375 15.71125 53.27875 15.5625 53.9375 C15 56 15 56 14 57 C15.39025391 57.09087891 15.39025391 57.09087891 16.80859375 57.18359375 C18.00613281 57.26738281 19.20367187 57.35117188 20.4375 57.4375 C21.63246094 57.51871094 22.82742187 57.59992188 24.05859375 57.68359375 C27 58 27 58 28 59 C28.14115161 61.67058851 28.04247107 64.32432238 28 67 C27.01 67 26.02 67 25 67 C24.34 65.35 23.68 63.7 23 62 C20.69 61.67 18.38 61.34 16 61 C16.93769172 64.19886832 17.49666191 65.67588712 20.34765625 67.51171875 C21.24355469 67.89972656 22.13945312 68.28773437 23.0625 68.6875 C27.91168353 70.82336707 27.91168353 70.82336707 29 73 C29.0955931 74.66444461 29.12984645 76.33281963 29.125 78 C29.12886719 79.3303125 29.12886719 79.3303125 29.1328125 80.6875 C29 83 29 83 28 85 C24.76170223 86.07943259 22.39973665 86.0999971 19 86.0625 C17.948125 86.05347656 16.89625 86.04445313 15.8125 86.03515625 C14.884375 86.02355469 13.95625 86.01195313 13 86 C12.01 86 11.02 86 10 86 C7 85.8125 7 85.8125 4 85 C1.3297894 81.70674025 1 80.31858974 1 76 C-1.31 76 -3.62 76 -6 76 C-6.99 79.3 -7.98 82.6 -9 86 C-11.64 85.67 -14.28 85.34 -17 85 C-17.99 82.36 -18.98 79.72 -20 77 C-21.98 77 -23.96 77 -26 77 C-27.32 79.97 -28.64 82.94 -30 86 C-30.66 86 -31.32 86 -32 86 C-31.37869771 79.69071903 -29.50010374 74.03792431 -27.4375 68.0625 C-27.10814453 67.09248047 -26.77878906 66.12246094 -26.43945312 65.12304688 C-25.6317552 62.74677616 -24.81849052 60.37257031 -24 58 C-26.64 58.33 -29.28 58.66 -32 59 C-32 61.64 -32 64.28 -32 67 C-32.99 67 -33.98 67 -35 67 C-35.495 64.525 -35.495 64.525 -36 62 C-38.64 61.34 -41.28 60.68 -44 60 C-44 63.3 -44 66.6 -44 70 C-41.48916886 68.74458443 -41.12874554 67.49936512 -40 65 C-39.34 65 -38.68 65 -38 65 C-38 68.96 -38 72.92 -38 77 C-38.99 76.67 -39.98 76.34 -41 76 C-41 75.01 -41 74.02 -41 73 C-41.99 73 -42.98 73 -44 73 C-43.96519531 73.68707031 -43.93039063 74.37414062 -43.89453125 75.08203125 C-43.86746094 75.98308594 -43.84039062 76.88414063 -43.8125 77.8125 C-43.77769531 78.70582031 -43.74289063 79.59914063 -43.70703125 80.51953125 C-44 83 -44 83 -45.32421875 84.82421875 C-47 86 -47 86 -50 86 C-50 76.76 -50 67.52 -50 58 C-45.38 57.67 -40.76 57.34 -36 57 C-36.99 55.35 -37.98 53.7 -39 52 C-39.93347986 49.97526903 -40.82888006 47.93259373 -41.6875 45.875 C-42.12449219 44.84117188 -42.56148438 43.80734375 -43.01171875 42.7421875 C-44 40 -44 40 -44 37 C-44.99 36.67 -45.98 36.34 -47 36 C-48.125 30.375 -48.125 30.375 -47 27 C-44.04335481 25.5216774 -41.25770263 25.93967217 -38 26 C-38.03480469 25.37351562 -38.06960937 24.74703125 -38.10546875 24.1015625 C-38.13253906 23.28429687 -38.15960938 22.46703125 -38.1875 21.625 C-38.22230469 20.81289063 -38.25710937 20.00078125 -38.29296875 19.1640625 C-38.19628906 18.44992188 -38.09960938 17.73578125 -38 17 C-35 15 -35 15 -32 15 C-31.67 13.68 -31.34 12.36 -31 11 C-30.01 11.33 -29.02 11.66 -28 12 C-28 12.66 -28 13.32 -28 14 C-23.65815798 13.81535634 -23.65815798 13.81535634 -20 12 C-18.00041636 11.95919217 -15.99954746 11.95745644 -14 12 C-13.938125 11.071875 -13.87625 10.14375 -13.8125 9.1875 C-13 6 -13 6 -10.625 4.125 C-8 3 -8 3 -5 3 C-4.505 4.98 -4.505 4.98 -4 7 C-1.77810176 4.77810176 -1.07401108 2.91517292 0 0 Z M-19 58 C-16.95285106 65.77916598 -14.61516053 73.3934671 -12 81 C-8.78332881 77.38714057 -7.66485767 73.47668238 -6.3125 68.9375 C-6.08755859 68.21755859 -5.86261719 67.49761719 -5.63085938 66.75585938 C-4.70979132 63.74069131 -4 61.16988272 -4 58 C-8.95 58 -13.9 58 -19 58 Z M1 58 C2.11731442 61.79408908 3.24343684 65.58516148 4.375 69.375 C4.69210938 70.45523438 5.00921875 71.53546875 5.3359375 72.6484375 C5.6453125 73.6796875 5.9546875 74.7109375 6.2734375 75.7734375 C6.55622559 76.72653809 6.83901367 77.67963867 7.13037109 78.66162109 C7.87029663 81.14781862 7.87029663 81.14781862 10 83 C10 80.03 10 77.06 10 74 C10.99 74 11.98 74 13 74 C13.103125 75.11375 13.20625 76.2275 13.3125 77.375 C13.539375 78.57125 13.76625 79.7675 14 81 C17.22213757 83.14809171 18.27775401 83.29386153 22 83 C23.35618499 81.87465895 23.35618499 81.87465895 23.0625 78.9375 C23.041875 77.968125 23.02125 76.99875 23 76 C21.71086513 75.32845067 20.41859796 74.66291141 19.125 74 C18.40570313 73.62875 17.68640625 73.2575 16.9453125 72.875 C15.05151023 71.86326254 15.05151023 71.86326254 13 72 C13 71.34 13 70.68 13 70 C12.34 69.67 11.68 69.34 11 69 C10.9729957 67.54176788 10.95360213 66.08339325 10.9375 64.625 C10.92589844 63.81289062 10.91429687 63.00078125 10.90234375 62.1640625 C11 60 11 60 12 58 C8.37 58 4.74 58 1 58 Z M-3 66 C-3.66 68.31 -4.32 70.62 -5 73 C-3.35 73 -1.7 73 0 73 C-0.66 70.69 -1.32 68.38 -2 66 C-2.33 66 -2.66 66 -3 66 Z M-23 67 C-25.2773501 69.81509993 -25.2773501 69.81509993 -25 73 C-23.68 73 -22.36 73 -21 73 C-21.33 71.02 -21.66 69.04 -22 67 C-22.33 67 -22.66 67 -23 67 Z " fill="#BF905F" transform="translate(107,35)"/>
<path d="M0 0 C1.875 0.3125 1.875 0.3125 4 1 C5.7208877 3.58133154 6.4651263 5.12794206 7.2890625 8.01171875 C7.50820312 8.76904297 7.72734375 9.52636719 7.953125 10.30664062 C8.28570312 11.48516602 8.28570312 11.48516602 8.625 12.6875 C8.96917969 13.88342773 8.96917969 13.88342773 9.3203125 15.10351562 C9.88486236 17.0676787 10.44304988 19.03366847 11 21 C13.99497169 17.59545954 14.93221349 14.28933188 16.0625 9.9375 C17.79465056 3.30802416 17.79465056 3.30802416 20 0 C22.475 0.495 22.475 0.495 25 1 C25.79359736 3.3535311 26.58491783 5.70778883 27.375 8.0625 C27.70757812 9.04766602 27.70757812 9.04766602 28.046875 10.05273438 C29.48306019 14.34016957 30.78775047 18.6438323 32 23 C32.33 20.69 32.66 18.38 33 16 C33.99 16 34.98 16 36 16 C36.66 18.31 37.32 20.62 38 23 C40.31 23.33 42.62 23.66 45 24 C45.33 22.02 45.66 20.04 46 18 C45.278125 17.71125 44.55625 17.4225 43.8125 17.125 C41.20833333 16.08333333 38.60416667 15.04166667 36 14 C36 13.34 36 12.68 36 12 C35.01 11.67 34.02 11.34 33 11 C32.94600264 9.54207116 32.90720823 8.08357288 32.875 6.625 C32.85179687 5.81289062 32.82859375 5.00078125 32.8046875 4.1640625 C33 2 33 2 35 0 C37.56292317 -0.17163731 40.00345857 -0.23264558 42.5625 -0.1875 C43.26052734 -0.18685547 43.95855469 -0.18621094 44.67773438 -0.18554688 C49.85968842 -0.14031158 49.85968842 -0.14031158 51 1 C51.14115161 3.67058851 51.04247107 6.32432238 51 9 C50.01 9 49.02 9 48 9 C47.34 7.35 46.68 5.7 46 4 C43.69 3.67 41.38 3.34 39 3 C39.93769172 6.19886832 40.49666191 7.67588712 43.34765625 9.51171875 C44.24355469 9.89972656 45.13945312 10.28773437 46.0625 10.6875 C50.91168353 12.82336707 50.91168353 12.82336707 52 15 C52.0955931 16.66444461 52.12984645 18.33281963 52.125 20 C52.12886719 21.3303125 52.12886719 21.3303125 52.1328125 22.6875 C52 25 52 25 51 27 C47.76170223 28.07943259 45.39973665 28.0999971 42 28.0625 C40.948125 28.05347656 39.89625 28.04445313 38.8125 28.03515625 C37.884375 28.02355469 36.95625 28.01195313 36 28 C35.01 28 34.02 28 33 28 C30 27.8125 30 27.8125 27 27 C24.3297894 23.70674025 24 22.31858974 24 18 C21.69 18 19.38 18 17 18 C16.01 21.3 15.02 24.6 14 28 C11.36 27.67 8.72 27.34 6 27 C5.01 24.36 4.02 21.72 3 19 C1.02 19 -0.96 19 -3 19 C-4.98 23.455 -4.98 23.455 -7 28 C-7.66 28 -8.32 28 -9 28 C-8.36519395 22.077822 -6.78907028 16.71172256 -4.9375 11.0625 C-4.65583984 10.18787109 -4.37417969 9.31324219 -4.08398438 8.41210938 C-3.39434445 6.27305673 -2.69959171 4.13581421 -2 2 C-1.34 2 -0.68 2 0 2 C0 1.34 0 0.68 0 0 Z M20 8 C19.34 10.31 18.68 12.62 18 15 C19.65 15 21.3 15 23 15 C22.34 12.69 21.68 10.38 21 8 C20.67 8 20.34 8 20 8 Z M0 9 C-2.2773501 11.81509993 -2.2773501 11.81509993 -2 15 C-0.68 15 0.64 15 2 15 C1.67 13.02 1.34 11.04 1 9 C0.67 9 0.34 9 0 9 Z " fill="#DB4D42" transform="translate(84,93)"/>
<path d="M0 0 C1 3 1 3 -0.1875 5.5 C-1.94150569 7.9193182 -3.51794573 9.37382651 -6 11 C-3.525 11.99 -3.525 11.99 -1 13 C-1 14.98 -1 16.96 -1 19 C0.134375 19.309375 1.26875 19.61875 2.4375 19.9375 C6 21 6 21 7 22 C6.82364548 24.69082872 6.38164079 27.32851446 6 30 C5.24074219 30.01417969 4.48148437 30.02835938 3.69921875 30.04296875 C0.72071806 30.18590588 -2.07969297 30.38837227 -5 31 C-7.28795759 33.35547425 -7.28795759 33.35547425 -8 36 C-9.875 35.75 -9.875 35.75 -12 35 C-13.1328125 32.953125 -13.1328125 32.953125 -14 31 C-14.84778267 30.9845388 -14.84778267 30.9845388 -15.71269226 30.96876526 C-21.60146145 30.86048552 -27.49008426 30.74590537 -33.37866211 30.62768555 C-35.57557102 30.58440548 -37.77251207 30.54272555 -39.96948242 30.50268555 C-43.12949299 30.44481513 -46.28934284 30.38116893 -49.44921875 30.31640625 C-50.42960617 30.29969376 -51.40999359 30.28298126 -52.42008972 30.26576233 C-53.34066666 30.24581711 -54.26124359 30.22587189 -55.2097168 30.20532227 C-56.0157988 30.18977798 -56.8218808 30.1742337 -57.65238953 30.15821838 C-60.16948533 29.98857745 -62.53907787 29.54479549 -65 29 C-64.67 28.34 -64.34 27.68 -64 27 C-48.49 26.67 -32.98 26.34 -17 26 C-17.495 22.535 -17.495 22.535 -18 19 C-17.505 17.515 -17.505 17.515 -17 16 C-16.835 15.29875 -16.67 14.5975 -16.5 13.875 C-16 12 -16 12 -15 11 C-14.63239269 8.67182036 -14.29758419 6.3381615 -14 4 C-13.01 4 -12.02 4 -11 4 C-10.67 3.01 -10.34 2.02 -10 1 C-6.78548731 -0.60725635 -3.56387464 -0.05748185 0 0 Z " fill="#602169" transform="translate(126,41)"/>
<path d="M0 0 C2.48046875 -0.48828125 2.48046875 -0.48828125 5.1875 -0.3125 C6.08855469 -0.26738281 6.98960938 -0.22226563 7.91796875 -0.17578125 C8.94857422 -0.08876953 8.94857422 -0.08876953 10 0 C8.34778972 4.16986405 7.15626096 6.84373904 4 10 C3.67 11.65 3.34 13.3 3 15 C-15.15 15 -33.3 15 -52 15 C-52.99 11.7 -53.98 8.4 -55 5 C-53.44047607 5.02618408 -51.88095215 5.05236816 -50.27416992 5.0793457 C-44.49892473 5.16971211 -38.72374222 5.2272009 -32.94799805 5.2746582 C-30.44626362 5.29983309 -27.94460295 5.33397537 -25.44311523 5.37719727 C-21.85121487 5.43771491 -18.2602851 5.46618054 -14.66796875 5.48828125 C-13.54601608 5.51408768 -12.42406342 5.5398941 -11.26811218 5.56648254 C-9.70683342 5.56704903 -9.70683342 5.56704903 -8.11401367 5.56762695 C-7.19690109 5.57873001 -6.27978851 5.58983307 -5.33488464 5.60127258 C-2.73697456 5.20967851 -2.73697456 5.20967851 -1.33540344 2.49504089 C-0.89472031 1.6716774 -0.45403717 0.8483139 0 0 Z " fill="#AE7E4E" transform="translate(121,71)"/>
<path d="M0 0 C0.99 0.33 1.98 0.66 3 1 C5.42629526 5.98029026 5.66626984 11.55226422 5 17 C4.34 17.66 3.68 18.32 3 19 C3 19.804375 3 20.60875 3 21.4375 C3 24 3 24 1 27 C-1.03125 27.38818359 -1.03125 27.38818359 -3.5 27.3984375 C-4.8303125 27.40423828 -4.8303125 27.40423828 -6.1875 27.41015625 C-7.115625 27.39855469 -8.04375 27.38695313 -9 27.375 C-9.928125 27.38660156 -10.85625 27.39820312 -11.8125 27.41015625 C-12.699375 27.40628906 -13.58625 27.40242188 -14.5 27.3984375 C-15.3146875 27.39505371 -16.129375 27.39166992 -16.96875 27.38818359 C-17.6390625 27.26008301 -18.309375 27.13198242 -19 27 C-21.56616632 23.15075052 -21.55097676 20.5650696 -22 16 C-26.29 16 -30.58 16 -35 16 C-34.01 15.67 -33.02 15.34 -32 15 C-31.26676204 12.98491642 -31.26676204 12.98491642 -31 11 C-30.01 11.33 -29.02 11.66 -28 12 C-28 12.66 -28 13.32 -28 14 C-23.65815798 13.81535634 -23.65815798 13.81535634 -20 12 C-18.00041636 11.95919217 -15.99954746 11.95745644 -14 12 C-13.938125 11.071875 -13.87625 10.14375 -13.8125 9.1875 C-13 6 -13 6 -10.625 4.125 C-8 3 -8 3 -5 3 C-4.67 4.32 -4.34 5.64 -4 7 C-1.77810176 4.77810176 -1.07401108 2.91517292 0 0 Z " fill="#8AB53C" transform="translate(107,35)"/>
<path d="M0 0 C0.33 0.99 0.66 1.98 1 3 C2.9490625 2.7215625 2.9490625 2.7215625 4.9375 2.4375 C7.15234375 2.12109375 7.15234375 2.12109375 9 2 C10.65376711 3.65376711 10.63471208 5.80948364 11.0625 8.0625 C11.23910156 8.98160156 11.41570312 9.90070312 11.59765625 10.84765625 C11.79681641 11.91306641 11.79681641 11.91306641 12 13 C12.92941406 12.97679687 13.85882813 12.95359375 14.81640625 12.9296875 C27.09490334 12.75043937 27.09490334 12.75043937 33 15 C33.495 17.475 33.495 17.475 34 20 C18.16 20 2.32 20 -14 20 C-14 16 -14 16 -13 15 C-10.66702567 14.95907063 -8.33294775 14.95758277 -6 15 C-6.02320312 14.30132812 -6.04640625 13.60265625 -6.0703125 12.8828125 C-6.08835937 11.97273438 -6.10640625 11.06265625 -6.125 10.125 C-6.14820312 9.22007813 -6.17140625 8.31515625 -6.1953125 7.3828125 C-6 5 -6 5 -4 3 C-2.68 3 -1.36 3 0 3 C0 2.01 0 1.02 0 0 Z " fill="#BD8B55" transform="translate(76,48)"/>
<path d="M0 0 C1.2065625 0.0309375 1.2065625 0.0309375 2.4375 0.0625 C2.4375 1.0525 2.4375 2.0425 2.4375 3.0625 C7.0575 3.0625 11.6775 3.0625 16.4375 3.0625 C16.7675 2.0725 17.0975 1.0825 17.4375 0.0625 C18.4275 0.0625 19.4175 0.0625 20.4375 0.0625 C20.4375 1.0525 20.4375 2.0425 20.4375 3.0625 C24.3975 3.0625 28.3575 3.0625 32.4375 3.0625 C32.4375 5.0425 32.4375 7.0225 32.4375 9.0625 C31.4375 10.0625 31.4375 10.0625 27.62109375 10.16015625 C26.03903318 10.15348089 24.45698841 10.14151875 22.875 10.125 C22.06869141 10.12048828 21.26238281 10.11597656 20.43164062 10.11132812 C18.43356244 10.09950518 16.43552217 10.08156914 14.4375 10.0625 C14.1075 8.7425 13.7775 7.4225 13.4375 6.0625 C12.7775 6.0625 12.1175 6.0625 11.4375 6.0625 C11.4375 7.3825 11.4375 8.7025 11.4375 10.0625 C6.4875 10.0625 1.5375 10.0625 -3.5625 10.0625 C-3.66015625 3.12890625 -3.66015625 3.12890625 -3.5625 1.0625 C-2.5625 0.0625 -2.5625 0.0625 0 0 Z M23.4375 5.0625 C24.4375 8.0625 24.4375 8.0625 24.4375 8.0625 Z M-1.5625 6.0625 C-0.5625 8.0625 -0.5625 8.0625 -0.5625 8.0625 Z M5.4375 6.0625 C6.4375 8.0625 6.4375 8.0625 6.4375 8.0625 Z " fill="#66A94C" transform="translate(105.5625,122.9375)"/>
<path d="M0 0 C4.1765625 -0.0309375 4.1765625 -0.0309375 8.4375 -0.0625 C9.75512329 -0.07615601 9.75512329 -0.07615601 11.09936523 -0.09008789 C13.06645974 -0.09723091 15.03353621 -0.05031893 17 0 C18 1 18 1 18.09765625 2.84765625 C18.06510417 4.8984375 18.03255208 6.94921875 18 9 C17.01 9 16.02 9 15 9 C14.67 7.35 14.34 5.7 14 4 C11.36 3.34 8.72 2.68 6 2 C6 5.3 6 8.6 6 12 C8.51083114 10.74458443 8.87125446 9.49936512 10 7 C10.66 7 11.32 7 12 7 C12 10.96 12 14.92 12 19 C11.01 18.67 10.02 18.34 9 18 C9 17.01 9 16.02 9 15 C8.01 15 7.02 15 6 15 C6.03480469 15.68707031 6.06960937 16.37414062 6.10546875 17.08203125 C6.13253906 17.98308594 6.15960938 18.88414063 6.1875 19.8125 C6.22230469 20.70582031 6.25710937 21.59914063 6.29296875 22.51953125 C6 25 6 25 4.67578125 26.82421875 C3 28 3 28 0 28 C0 18.76 0 9.52 0 0 Z " fill="#D93E35" transform="translate(57,93)"/>
<path d="M0 0 C6.51445205 -0.0505939 13.02885368 -0.08568856 19.54345703 -0.10986328 C21.76092421 -0.11993825 23.97837805 -0.13359859 26.19580078 -0.15087891 C29.37796312 -0.17506163 32.55995024 -0.18646797 35.7421875 -0.1953125 C37.23599442 -0.21079636 37.23599442 -0.21079636 38.75997925 -0.22659302 C40.14118454 -0.22681961 40.14118454 -0.22681961 41.55029297 -0.22705078 C42.3630368 -0.231492 43.17578064 -0.23593323 44.01315308 -0.24050903 C46 0 46 0 48 2 C48 2.99 48 3.98 48 5 C32.16 5 16.32 5 0 5 C0 3.35 0 1.7 0 0 Z " fill="#BC8A56" transform="translate(66,71)"/>
<path d="M0 0 C0.33 0.99 0.66 1.98 1 3 C2.9490625 2.7215625 2.9490625 2.7215625 4.9375 2.4375 C7.15234375 2.12109375 7.15234375 2.12109375 9 2 C10.73956658 3.73956658 10.37190386 6.1936622 10.5625 8.5625 C10.68818359 10.08037109 10.68818359 10.08037109 10.81640625 11.62890625 C10.87699219 12.41136719 10.93757813 13.19382812 11 14 C8.35409986 14.02684679 5.70846904 14.04676357 3.0625 14.0625 C1.93038086 14.07506836 1.93038086 14.07506836 0.77539062 14.08789062 C-1.14994313 14.09652441 -3.07535581 14.05224333 -5 14 C-6.89488952 12.10511048 -6.18019112 9.42860854 -6.23046875 6.91015625 C-6 5 -6 5 -4 3 C-2.68 3 -1.36 3 0 3 C0 2.01 0 1.02 0 0 Z " fill="#C72734" transform="translate(76,48)"/>
<path d="M0 0 C1.98 0 3.96 0 6 0 C6 0.99 6 1.98 6 3 C9.3 2.67 12.6 2.34 16 2 C16 1.34 16 0.68 16 0 C17.98 0 19.96 0 22 0 C23.2380014 3.57644848 22.74926071 6.33694766 22 10 C20.10424749 10.02721176 18.20838021 10.04649136 16.3125 10.0625 C14.72888672 10.07990234 14.72888672 10.07990234 13.11328125 10.09765625 C10.27053846 10.00848615 7.76670477 9.61536166 5 9 C2.78918149 8.89459074 2.78918149 8.89459074 0 10 C0 6.7 0 3.4 0 0 Z " fill="#75B45A" transform="translate(53,123)"/>
<path d="M0 0 C2.48046875 -0.48828125 2.48046875 -0.48828125 5.1875 -0.3125 C6.08855469 -0.26738281 6.98960938 -0.22226563 7.91796875 -0.17578125 C8.94857422 -0.08876953 8.94857422 -0.08876953 10 0 C9.01 2.31 8.02 4.62 7 7 C-13.46 7 -33.92 7 -55 7 C-55 6.34 -55 5.68 -55 5 C-54.35520187 5.01110306 -53.71040375 5.02220612 -53.04606628 5.03364563 C-46.34685084 5.14409515 -39.64789311 5.21960746 -32.94799805 5.2746582 C-30.44626362 5.29983309 -27.94460295 5.33397537 -25.44311523 5.37719727 C-21.85121487 5.43771491 -18.2602851 5.46618054 -14.66796875 5.48828125 C-13.54601608 5.51408768 -12.42406342 5.5398941 -11.26811218 5.56648254 C-9.70683342 5.56704903 -9.70683342 5.56704903 -8.11401367 5.56762695 C-7.19690109 5.57873001 -6.27978851 5.58983307 -5.33488464 5.60127258 C-2.73697456 5.20967851 -2.73697456 5.20967851 -1.33540344 2.49504089 C-0.89472031 1.6716774 -0.45403717 0.8483139 0 0 Z " fill="#845634" transform="translate(121,71)"/>
<path d="M0 0 C0.495 1.98 0.495 1.98 1 4 C-5.31712993 4.02538248 -11.63424668 4.04288057 -17.95141602 4.05493164 C-20.09985852 4.05995629 -22.2482976 4.06677708 -24.39672852 4.07543945 C-27.4871505 4.08758678 -30.57752722 4.09324705 -33.66796875 4.09765625 C-34.62648239 4.10281754 -35.58499603 4.10797882 -36.57255554 4.11329651 C-37.47311172 4.11337204 -38.37366791 4.11344757 -39.30151367 4.11352539 C-40.08983078 4.115746 -40.87814789 4.11796661 -41.69035339 4.12025452 C-44.20419855 3.98936816 -46.54610177 3.54820896 -49 3 C-48.67 2.34 -48.34 1.68 -48 1 C-32.16 0.67 -16.32 0.34 0 0 Z " fill="#8A5D39" transform="translate(110,67)"/>
<path d="M0 0 C0.99 0.33 1.98 0.66 3 1 C2.01 1.33 1.02 1.66 0 2 C-0.103125 2.70125 -0.20625 3.4025 -0.3125 4.125 C-1.15003606 7.62742352 -2.39692108 11.39692108 -5 14 C-8.56366263 14.03189979 -12.11719371 13.93128353 -15.6796875 13.83984375 C-19.13924753 13.72163225 -19.13924753 13.72163225 -22 16 C-25.13671875 16.1953125 -25.13671875 16.1953125 -28.6875 16.125 C-29.86699219 16.10695313 -31.04648438 16.08890625 -32.26171875 16.0703125 C-33.16535156 16.04710938 -34.06898437 16.02390625 -35 16 C-34.01 15.67 -33.02 15.34 -32 15 C-31.26676204 12.98491642 -31.26676204 12.98491642 -31 11 C-30.01 11.33 -29.02 11.66 -28 12 C-28 12.66 -28 13.32 -28 14 C-23.65815798 13.81535634 -23.65815798 13.81535634 -20 12 C-18.00041636 11.95919217 -15.99954746 11.95745644 -14 12 C-13.938125 11.071875 -13.87625 10.14375 -13.8125 9.1875 C-13 6 -13 6 -10.625 4.125 C-8 3 -8 3 -5 3 C-4.67 4.32 -4.34 5.64 -4 7 C-1.77810176 4.77810176 -1.07401108 2.91517292 0 0 Z " fill="#AABC81" transform="translate(107,35)"/>
<path d="M0 0 C0.66 0.33 1.32 0.66 2 1 C2.05395478 2.62463842 2.09277195 4.24978541 2.125 5.875 C2.14820312 6.77992187 2.17140625 7.68484375 2.1953125 8.6171875 C2 11 2 11 0 13 C0 13.804375 0 14.60875 0 15.4375 C0 18 0 18 -2 21 C-5.125 21.1875 -5.125 21.1875 -8 21 C-7.55040347 18.22748806 -7.09073921 15.45730481 -6.625 12.6875 C-6.43550781 11.50897461 -6.43550781 11.50897461 -6.2421875 10.30664062 C-6.11328125 9.54931641 -5.984375 8.79199219 -5.8515625 8.01171875 C-5.73635254 7.31522217 -5.62114258 6.61872559 -5.50244141 5.90112305 C-5 4 -5 4 -3 1 C-2.01 0.67 -1.02 0.34 0 0 Z " fill="#F7B721" transform="translate(110,41)"/>
<path d="M0 0 C0.99 0 1.98 0 3 0 C3 0.99 3 1.98 3 3 C6.96 3 10.92 3 15 3 C15 4.98 15 6.96 15 9 C14 10 14 10 10.18359375 10.09765625 C8.60153318 10.09098089 7.01948841 10.07901875 5.4375 10.0625 C4.63119141 10.05798828 3.82488281 10.05347656 2.99414062 10.04882812 C0.99606244 10.03700518 -1.00197783 10.01906914 -3 10 C-2.34 9.34 -1.68 8.68 -1 8 C-1.165 7.38125 -1.33 6.7625 -1.5 6.125 C-2.14106968 3.40045386 -1.41793887 2.33542872 0 0 Z M6 5 C7 8 7 8 7 8 Z " fill="#69AA4E" transform="translate(123,123)"/>
<path d="M0 0 C0.66 0.33 1.32 0.66 2 1 C1.67 1.33 1.34 1.66 1 2 C0.76712992 3.68183948 0.58735834 5.3712416 0.4375 7.0625 C0.35371094 7.98160156 0.26992187 8.90070312 0.18359375 9.84765625 C0.12300781 10.55792969 0.06242187 11.26820312 0 12 C-2.31 12.33 -4.62 12.66 -7 13 C-7.33 14.65 -7.66 16.3 -8 18 C-6.68 18.33 -5.36 18.66 -4 19 C-3.938125 20.0725 -3.87625 21.145 -3.8125 22.25 C-3.08823416 28.18258929 -0.71618805 33.71147186 2 39 C4.70183055 40.35091528 7.11808206 40.33858058 10.125 40.5625 C11.22070312 40.64628906 12.31640625 40.73007813 13.4453125 40.81640625 C14.70988281 40.90728516 14.70988281 40.90728516 16 41 C15.01 41.495 15.01 41.495 14 42 C13.67 42.66 13.34 43.32 13 44 C13 43.34 13 42.68 13 42 C11.86111328 42.05220703 11.86111328 42.05220703 10.69921875 42.10546875 C9.70535156 42.13253906 8.71148437 42.15960938 7.6875 42.1875 C6.70136719 42.22230469 5.71523437 42.25710937 4.69921875 42.29296875 C2 42 2 42 0.34375 40.95703125 C-1.67450688 38.01765131 -2.91197497 34.80691673 -4.1875 31.5 C-4.46013672 30.82324219 -4.73277344 30.14648438 -5.01367188 29.44921875 C-6.17796141 26.49034761 -7 24.20728456 -7 21 C-7.99 20.67 -8.98 20.34 -10 20 C-11.125 14.375 -11.125 14.375 -10 11 C-7.04335481 9.5216774 -4.25770263 9.93967217 -1 10 C-1.01160156 9.36191406 -1.02320312 8.72382812 -1.03515625 8.06640625 C-1.04417969 7.24011719 -1.05320312 6.41382813 -1.0625 5.5625 C-1.07410156 4.73878906 -1.08570312 3.91507813 -1.09765625 3.06640625 C-1 1 -1 1 0 0 Z " fill="#C89D81" transform="translate(70,51)"/>
<path d="M0 0 C1 3 1 3 -0.125 5.5 C-2.20769848 8.27693131 -3.86261672 9.54609068 -7 11 C-8.32 11 -9.64 11 -11 11 C-11.12375 10.030625 -11.2475 9.06125 -11.375 8.0625 C-11.58125 7.051875 -11.7875 6.04125 -12 5 C-12.66 4.67 -13.32 4.34 -14 4 C-13.01 4 -12.02 4 -11 4 C-10.67 3.01 -10.34 2.02 -10 1 C-6.78548731 -0.60725635 -3.56387464 -0.05748185 0 0 Z " fill="#A2C26D" transform="translate(126,41)"/>
<path d="M0 0 C0.99 0 1.98 0 3 0 C3.66 2.31 4.32 4.62 5 7 C8.40320934 7.67673447 8.40320934 7.67673447 12 8 C12.66 7.34 13.32 6.68 14 6 C14 7.32 14 8.64 14 10 C14.99 10 15.98 10 17 10 C17.66 8.68 18.32 7.36 19 6 C18.67 7.65 18.34 9.3 18 11 C14.76170223 12.07943259 12.39973665 12.0999971 9 12.0625 C7.948125 12.05347656 6.89625 12.04445313 5.8125 12.03515625 C4.884375 12.02355469 3.95625 12.01195313 3 12 C2.01 12 1.02 12 0 12 C-1.33981486 11.6937566 -2.67511887 11.36548445 -4 11 C-3.34 11 -2.68 11 -2 11 C-0.98617037 7.3791799 -0.50102309 3.72188582 0 0 Z " fill="#DE5C54" transform="translate(117,109)"/>
<path d="M0 0 C3 1 3 1 4 3 C5.98 3 7.96 3 10 3 C10 5.31 10 7.62 10 10 C-1 10 -1 10 -3 9 C-2.01 6.03 -1.02 3.06 0 0 Z " fill="#69AC4B" transform="translate(80,123)"/>
<path d="M0 0 C0.66 0 1.32 0 2 0 C2 1.98 2 3.96 2 6 C3.7015625 6.4640625 3.7015625 6.4640625 5.4375 6.9375 C9 8 9 8 10 9 C9.82364548 11.69082872 9.38164079 14.32851446 9 17 C8.34 16.34 7.68 15.68 7 15 C4.67724823 14.59952556 2.34260643 14.2602896 0 14 C0 9.38 0 4.76 0 0 Z " fill="#BB8F75" transform="translate(123,54)"/>
<path d="M0 0 C1.98 0 3.96 0 6 0 C7.2380014 3.57644848 6.74926071 6.33694766 6 10 C4.02 10 2.04 10 0 10 C0 9.34 0 8.68 0 8 C-0.66 8 -1.32 8 -2 8 C-2 6.02 -2 4.04 -2 2 C-1.34 2 -0.68 2 0 2 C0 1.34 0 0.68 0 0 Z " fill="#69AC4B" transform="translate(69,123)"/>
<path d="M0 0 C0.66 0 1.32 0 2 0 C2.33 1.98 2.66 3.96 3 6 C5.64 6.33 8.28 6.66 11 7 C7.94736336 7.98120464 6.05263664 7.98120464 3 7 C3 7.99 3 8.98 3 10 C3 10.66 3 11.32 3 12 C2.360625 12.103125 1.72125 12.20625 1.0625 12.3125 C0.0415625 12.6528125 0.0415625 12.6528125 -1 13 C-1.33 13.99 -1.66 14.98 -2 16 C-2.66 16 -3.32 16 -4 16 C-3.25 8.25 -3.25 8.25 -1 6 C-0.60235737 4.01178687 -0.26224651 2.01055661 0 0 Z " fill="#714664" transform="translate(112,46)"/>
<path d="M0 0 C0.66 0.33 1.32 0.66 2 1 C2.05395478 2.62463842 2.09277195 4.24978541 2.125 5.875 C2.14820312 6.77992187 2.17140625 7.68484375 2.1953125 8.6171875 C2 11 2 11 0 13 C0 13.804375 0 14.60875 0 15.4375 C0 18 0 18 -2 21 C-3.32 20.67 -4.64 20.34 -6 20 C-5.73445313 19.47792969 -5.46890625 18.95585938 -5.1953125 18.41796875 C-2.30176759 12.38799013 -0.93827119 6.60493534 0 0 Z " fill="#EFC540" transform="translate(110,41)"/>
<path d="M0 0 C1.37478516 0.01740234 1.37478516 0.01740234 2.77734375 0.03515625 C3.69644531 0.04417969 4.61554688 0.05320312 5.5625 0.0625 C6.27277344 0.07410156 6.98304688 0.08570312 7.71484375 0.09765625 C6.72484375 2.40765625 5.73484375 4.71765625 4.71484375 7.09765625 C4.38484375 6.43765625 4.05484375 5.77765625 3.71484375 5.09765625 C1.07484375 5.09765625 -1.56515625 5.09765625 -4.28515625 5.09765625 C-3.16461059 0.13523977 -3.16461059 0.13523977 0 0 Z " fill="#BD9066" transform="translate(123.28515625,70.90234375)"/>
<path d="M0 0 C1.98 0 3.96 0 6 0 C6 2.97 6 5.94 6 9 C5.01 9 4.02 9 3 9 C2.01 9.33 1.02 9.66 0 10 C0 6.7 0 3.4 0 0 Z " fill="#7DB864" transform="translate(53,123)"/>
<path d="M0 0 C0.99 0.33 1.98 0.66 3 1 C3.73046875 3.06640625 3.73046875 3.06640625 4.1875 5.5625 C4.34605469 6.38878906 4.50460938 7.21507812 4.66796875 8.06640625 C4.77753906 8.70449219 4.88710937 9.34257812 5 10 C4.236875 9.835 3.47375 9.67 2.6875 9.5 C-0.03596236 8.90854604 -0.03596236 8.90854604 -3 9 C-2.01 6.03 -1.02 3.06 0 0 Z " fill="#85BA6A" transform="translate(95,123)"/>
<path d="M0 0 C0.66 0 1.32 0 2 0 C2 3.96 2 7.92 2 12 C1.01 11.67 0.02 11.34 -1 11 C-1 10.01 -1 9.02 -1 8 C-1.99 8 -2.98 8 -4 8 C-4 7.01 -4 6.02 -4 5 C-3.34 4.67 -2.68 4.34 -2 4 C-0.86649466 1.98330173 -0.86649466 1.98330173 0 0 Z " fill="#DD5B52" transform="translate(67,100)"/>
<path d="M0 0 C0.99 0.33 1.98 0.66 3 1 C2.01 1.33 1.02 1.66 0 2 C-0.1546875 3.051875 -0.1546875 3.051875 -0.3125 4.125 C-1.10054272 7.42045139 -2.32869762 10.05850781 -4 13 C-4.99 13.495 -4.99 13.495 -6 14 C-6.66 13.34 -7.32 12.68 -8 12 C-7.34 9.69 -6.68 7.38 -6 5 C-7.65 5 -9.3 5 -11 5 C-8 3 -8 3 -5 3 C-4.67 4.32 -4.34 5.64 -4 7 C-1.77810176 4.77810176 -1.07401108 2.91517292 0 0 Z " fill="#C8CA96" transform="translate(107,35)"/>
<path d="M0 0 C1.65 0 3.3 0 5 0 C5 1.98 5 3.96 5 6 C2.69 6.66 0.38 7.32 -2 8 C-1.125 2.25 -1.125 2.25 0 0 Z " fill="#719A40" transform="translate(96,40)"/>
<path d="M0 0 C0.33 0.66 0.66 1.32 1 2 C1.66 2 2.32 2 3 2 C3.33 4.64 3.66 7.28 4 10 C3.34 9.34 2.68 8.68 2 8 C1.34 9.65 0.68 11.3 0 13 C-0.99 12.67 -1.98 12.34 -3 12 C-2.01 8.04 -1.02 4.08 0 0 Z " fill="#E0695D" transform="translate(82,95)"/>
<path d="M0 0 C0 2.64 0 5.28 0 8 C-0.99 8 -1.98 8 -3 8 C-3.33 6.35 -3.66 4.7 -4 3 C-8.455 2.01 -8.455 2.01 -13 1 C-13 0.67 -13 0.34 -13 0 C-11.58456585 -0.19658808 -10.16755969 -0.38187546 -8.75 -0.5625 C-7.96109375 -0.66691406 -7.1721875 -0.77132812 -6.359375 -0.87890625 C-3.99467126 -1.00027349 -2.2488963 -0.69633257 0 0 Z " fill="#D54F47" transform="translate(75,94)"/>
<path d="M0 0 C1.2065625 0.0309375 1.2065625 0.0309375 2.4375 0.0625 C2.4375 2.0425 2.4375 4.0225 2.4375 6.0625 C0.78135343 6.44468767 -0.88707024 6.77645102 -2.5625 7.0625 C-3.5625 6.0625 -3.5625 6.0625 -3.6875 3.5625 C-3.51717518 0.15600356 -3.41884482 0.08338646 0 0 Z " fill="#60AF43" transform="translate(135.5625,125.9375)"/>
<path d="M0 0 C0.99 0.33 1.98 0.66 3 1 C2.01 4.3 1.02 7.6 0 11 C-0.99 10.67 -1.98 10.34 -3 10 C-3.33 8.02 -3.66 6.04 -4 4 C-3.34 4 -2.68 4 -2 4 C-1.34 2.68 -0.68 1.36 0 0 Z " fill="#E2615A" transform="translate(98,110)"/>
<path d="M0 0 C0.66 0 1.32 0 2 0 C2 1.32 2 2.64 2 4 C3.65 4 5.3 4 7 4 C7.33 4.99 7.66 5.98 8 7 C3.545 7.495 3.545 7.495 -1 8 C-1.04241723 5.66705225 -1.04092937 3.33297433 -1 1 C-0.67 0.67 -0.34 0.34 0 0 Z " fill="#D94840" transform="translate(100,104)"/>
<path d="M0 0 C0.33 0.66 0.66 1.32 1 2 C2.98 2 4.96 2 7 2 C7.12375 2.61875 7.2475 3.2375 7.375 3.875 C7.87197356 6.19120832 7.87197356 6.19120832 10 8 C6.7 8 3.4 8 0 8 C0.99 7.67 1.98 7.34 3 7 C2.67 5.68 2.34 4.36 2 3 C1.34 3 0.68 3 0 3 C0 2.01 0 1.02 0 0 Z " fill="#519C30" transform="translate(103,125)"/>
<path d="M0 0 C1.32 0.33 2.64 0.66 4 1 C4 3.64 4 6.28 4 9 C3.01 9 2.02 9 1 9 C0.71125 8.21625 0.4225 7.4325 0.125 6.625 C-0.84912254 3.90328368 -0.84912254 3.90328368 -3 2 C-2.01 2 -1.02 2 0 2 C0 1.34 0 0.68 0 0 Z " fill="#DF5D53" transform="translate(131,93)"/>
<path d="M0 0 C0.99 0 1.98 0 3 0 C3 2.97 3 5.94 3 9 C2.67 7.68 2.34 6.36 2 5 C-1.0916909 7.52956528 -1.90931332 10.22454612 -3 14 C-3.66 13.67 -4.32 13.34 -5 13 C-3.25 6.25 -3.25 6.25 -1 4 C-0.3574765 1.93125966 -0.3574765 1.93125966 0 0 Z " fill="#C09C3B" transform="translate(107,37)"/>
<path d="M0 0 C0.33 0 0.66 0 1 0 C0.979375 0.94875 0.95875 1.8975 0.9375 2.875 C0.77448174 5.90666283 0.77448174 5.90666283 2 8 C1.06553465 10.03144641 0.06775224 12.03533587 -1 14 C-1.66 14 -2.32 14 -3 14 C-2.40380045 9.13103697 -1.43023178 4.67209049 0 0 Z " fill="#E26F65" transform="translate(78,107)"/>
<path d="M0 0 C0.99 0.33 1.98 0.66 3 1 C3.33 3.31 3.66 5.62 4 8 C3.34 7.67 2.68 7.34 2 7 C1.01 8.485 1.01 8.485 0 10 C0 9.34 0 8.68 0 8 C-0.66 8 -1.32 8 -2 8 C-1.34 5.36 -0.68 2.72 0 0 Z " fill="#E1746C" transform="translate(102,96)"/>
<path d="M0 0 C2.64 0.33 5.28 0.66 8 1 C8.33 1.99 8.66 2.98 9 4 C5.7 4 2.4 4 -1 4 C-0.67 2.68 -0.34 1.36 0 0 Z " fill="#885B40" transform="translate(122,67)"/>
<path d="M0 0 C2.97 0.495 2.97 0.495 6 1 C6 3.64 6 6.28 6 9 C5.34 9 4.68 9 4 9 C3.67 7.02 3.34 5.04 3 3 C2.01 2.67 1.02 2.34 0 2 C0 1.34 0 0.68 0 0 Z " fill="#BA9777" transform="translate(60,69)"/>
<path d="M0 0 C0.66 0.33 1.32 0.66 2 1 C2 4.3 2 7.6 2 11 C1.01 11 0.02 11 -1 11 C-0.67 7.37 -0.34 3.74 0 0 Z " fill="#F7D75A" transform="translate(110,41)"/>
<path d="M0 0 C0.99 0 1.98 0 3 0 C3 1.32 3 2.64 3 4 C5.64 4 8.28 4 11 4 C10.67 4.66 10.34 5.32 10 6 C7.67843403 6.40729228 5.3431213 6.74438677 3 7 C2.87625 6.030625 2.7525 5.06125 2.625 4.0625 C2.41875 3.051875 2.2125 2.04125 2 1 C1.34 0.67 0.68 0.34 0 0 Z " fill="#A8B686" transform="translate(112,45)"/>
<path d="M0 0 C0.99 0.33 1.98 0.66 3 1 C3 1.66 3 2.32 3 3 C4.98 3 6.96 3 9 3 C9 3.33 9 3.66 9 4 C7.58456585 4.19658808 6.16755969 4.38187546 4.75 4.5625 C3.96109375 4.66691406 3.1721875 4.77132812 2.359375 4.87890625 C-0.00532874 5.00027349 -1.7511037 4.69633257 -4 4 C-3.01 4 -2.02 4 -1 4 C-0.67 2.68 -0.34 1.36 0 0 Z " fill="#BF9895" transform="translate(76,46)"/>
<path d="M0 0 C1.8871875 0.0309375 1.8871875 0.0309375 3.8125 0.0625 C3.8125 0.7225 3.8125 1.3825 3.8125 2.0625 C0.42332427 3.1053233 -2.66153153 3.0625 -6.1875 3.0625 C-7.1775 3.5575 -7.1775 3.5575 -8.1875 4.0625 C-7.8575 3.0725 -7.5275 2.0825 -7.1875 1.0625 C-4.43671116 0.14557039 -2.82801087 -0.04636083 0 0 Z " fill="#DA3E33" transform="translate(127.1875,92.9375)"/>
<path d="M0 0 C1.5625 1.25 1.5625 1.25 3 3 C2.6875 5.1875 2.6875 5.1875 2 7 C0.68 7.33 -0.64 7.66 -2 8 C-1.34 5.36 -0.68 2.72 0 0 Z " fill="#83BA6B" transform="translate(79,125)"/>
<path d="M0 0 C3 2 3 2 3.6875 5.125 C3.790625 6.07375 3.89375 7.0225 4 8 C2.0625 7.6875 2.0625 7.6875 0 7 C-1.04449911 3.86650268 -0.93423645 3.01031744 0 0 Z " fill="#5FA63C" transform="translate(96,125)"/>
<path d="M0 0 C2.475 0.495 2.475 0.495 5 1 C5 2.65 5 4.3 5 6 C2.525 5.01 2.525 5.01 0 4 C0 2.68 0 1.36 0 0 Z M1 2 C2 4 2 4 2 4 Z " fill="#84B86B" transform="translate(110,127)"/>
<path d="M0 0 C0.33 0 0.66 0 1 0 C1 2.31 1 4.62 1 7 C1.99 7.33 2.98 7.66 4 8 C1.69 8 -0.62 8 -3 8 C-2.34 7.34 -1.68 6.68 -1 6 C-1.165 5.34 -1.33 4.68 -1.5 4 C-1.665 3.34 -1.83 2.68 -2 2 C-1.34 1.34 -0.68 0.68 0 0 Z " fill="#8BC273" transform="translate(123,125)"/>
<path d="M0 0 C0.99 0 1.98 0 3 0 C3.66 1.98 4.32 3.96 5 6 C3.68 5.67 2.36 5.34 1 5 C1 4.34 1 3.68 1 3 C0.34 3 -0.32 3 -1 3 C-0.67 2.01 -0.34 1.02 0 0 Z " fill="#6AAC4B" transform="translate(118,126)"/>
<path d="M0 0 C2.31 0 4.62 0 7 0 C7 0.66 7 1.32 7 2 C4.36 2.66 1.72 3.32 -1 4 C-0.67 2.68 -0.34 1.36 0 0 Z " fill="#719D3E" transform="translate(118,42)"/>
<path d="M0 0 C0.66 0 1.32 0 2 0 C1.67 1.32 1.34 2.64 1 4 C1.66 4.33 2.32 4.66 3 5 C2.34 5 1.68 5 1 5 C1 5.66 1 6.32 1 7 C0.34 7 -0.32 7 -1 7 C-1.04254356 5.00045254 -1.04080783 2.99958364 -1 1 C-0.67 0.67 -0.34 0.34 0 0 Z " fill="#8FB15D" transform="translate(116,42)"/>
</svg>
