<?xml version="1.0" encoding="UTF-8"?>
<svg version="1.1" xmlns="http://www.w3.org/2000/svg" width="180" height="180">
<path d="M0 0 C0.99 0 1.98 0 3 0 C3.99 2.97 4.98 5.94 6 9 C7.051875 8.01 7.051875 8.01 8.125 7 C11.46043144 4.67969987 13.02711547 4.55856839 17 5 C17.99 5.495 17.99 5.495 19 6 C17.125 11.75 17.125 11.75 16 14 C13.4375 14.625 13.4375 14.625 11 15 C12.98 15.99 14.96 16.98 17 18 C17 19.65 17 21.3 17 23 C18.134375 23.309375 19.26875 23.61875 20.4375 23.9375 C24 25 24 25 25 26 C25.04063832 27.66617115 25.042721 29.33388095 25 31 C24.34 31 23.68 31 23 31 C22.867146 31.57669434 22.73429199 32.15338867 22.59741211 32.74755859 C21.6005056 36.50622615 20.04152481 40.03437358 18.5625 43.625 C18.24990234 44.40101562 17.93730469 45.17703125 17.61523438 45.9765625 C17.31037109 46.7190625 17.00550781 47.4615625 16.69140625 48.2265625 C16.41498291 48.90283691 16.13855957 49.57911133 15.85375977 50.27587891 C15 52 15 52 13 54 C10.3984375 54.1953125 10.3984375 54.1953125 7.375 54.125 C6.37210938 54.10695312 5.36921875 54.08890625 4.3359375 54.0703125 C3.17964844 54.03550781 3.17964844 54.03550781 2 54 C2.32613281 54.95519531 2.65226562 55.91039062 2.98828125 56.89453125 C5.57846712 64.53820643 7.99925497 72.17594828 10 80 C8.13671875 80.6015625 8.13671875 80.6015625 6 81 C3.23733334 78.94773334 2.1594602 77.58468741 1.25 74.25 C1.1675 73.5075 1.085 72.765 1 72 C-0.98 72 -2.96 72 -5 72 C-6.32 74.97 -7.64 77.94 -9 81 C-11.8125 80.9375 -11.8125 80.9375 -15 80 C-18 74.5 -18 74.5 -18 71 C-20.883975 70.78209281 -20.883975 70.78209281 -24 72 C-25.77165873 74.8453913 -26.91376616 77.83714265 -28 81 C-28.66 81 -29.32 81 -30 81 C-28.68764148 74.63569826 -26.98780585 68.57878972 -24.875 62.4375 C-24.59785156 61.61958984 -24.32070312 60.80167969 -24.03515625 59.95898438 C-23.36094863 57.97123432 -22.68107796 55.98540651 -22 54 C-24.64 54.33 -27.28 54.66 -30 55 C-30 57.31 -30 59.62 -30 62 C-31.485 62.495 -31.485 62.495 -33 63 C-33 61.02 -33 59.04 -33 57 C-35.64 56.67 -38.28 56.34 -41 56 C-41 58.97 -41 61.94 -41 65 C-40.38125 64.34 -39.7625 63.68 -39.125 63 C-37 61 -37 61 -35 61 C-35 64.63 -35 68.26 -35 72 C-35.99 71.67 -36.98 71.34 -38 71 C-38 70.34 -38 69.68 -38 69 C-38.66 69 -39.32 69 -40 69 C-40.03738281 69.61488281 -40.07476562 70.22976562 -40.11328125 70.86328125 C-40.17902344 71.67152344 -40.24476562 72.47976562 -40.3125 73.3125 C-40.37050781 74.11300781 -40.42851563 74.91351563 -40.48828125 75.73828125 C-41.08206694 78.36272334 -41.95780294 79.30820672 -44 81 C-44.99 80.67 -45.98 80.34 -47 80 C-47 71.42 -47 62.84 -47 54 C-40.565 53.505 -40.565 53.505 -34 53 C-34.5053125 51.87980469 -35.010625 50.75960937 -35.53125 49.60546875 C-36.18779058 48.13294202 -36.84402466 46.66027861 -37.5 45.1875 C-37.83386719 44.44951172 -38.16773438 43.71152344 -38.51171875 42.95117188 C-38.82753906 42.23896484 -39.14335938 41.52675781 -39.46875 40.79296875 C-39.76201172 40.1383667 -40.05527344 39.48376465 -40.35742188 38.80932617 C-41 37 -41 37 -41 34 C-41.66 34 -42.32 34 -43 34 C-43.9765625 27.9453125 -43.9765625 27.9453125 -44 26 C-42 24 -42 24 -38.875 23.875 C-37.451875 23.936875 -37.451875 23.936875 -36 24 C-36.04125 22.906875 -36.0825 21.81375 -36.125 20.6875 C-36 17 -36 17 -34 14 C-31.375 13.8125 -31.375 13.8125 -29 14 C-29 12.68 -29 11.36 -29 10 C-28.01 10.33 -27.02 10.66 -26 11 C-26 11.66 -26 12.32 -26 13 C-21.65815798 12.81535634 -21.65815798 12.81535634 -18 11 C-16.33382885 10.95936168 -14.66611905 10.957279 -13 11 C-12.896875 10.05125 -12.79375 9.1025 -12.6875 8.125 C-12 5 -12 5 -9 3 C-6.3125 2.875 -6.3125 2.875 -4 3 C-3.505 3.99 -3.505 3.99 -3 5 C-2.34 5 -1.68 5 -1 5 C-0.67 3.35 -0.34 1.7 0 0 Z M-17 54 C-16.14669843 59.15761978 -16.14669843 59.15761978 -14.80859375 64.0859375 C-14.47504883 65.13974609 -14.47504883 65.13974609 -14.13476562 66.21484375 C-13.90466797 66.92769531 -13.67457031 67.64054687 -13.4375 68.375 C-13.20353516 69.11105469 -12.96957031 69.84710938 -12.72851562 70.60546875 C-12.1559972 72.40481238 -11.57850686 74.20257277 -11 76 C-7.9867293 72.54490075 -6.68384196 68.73381907 -5.3125 64.4375 C-5.08755859 63.76525391 -4.86261719 63.09300781 -4.63085938 62.40039062 C-3.67800378 59.4838995 -3 57.08765809 -3 54 C-7.62 54 -12.24 54 -17 54 Z M-22 61 C-22.33 63.31 -22.66 65.62 -23 68 C-21.68 68 -20.36 68 -19 68 C-19.57452746 64.06924356 -19.57452746 64.06924356 -22 61 Z M-3 62 C-3.33 63.98 -3.66 65.96 -4 68 C-2.68 68 -1.36 68 0 68 C-0.66 66.02 -1.32 64.04 -2 62 C-2.33 62 -2.66 62 -3 62 Z " fill="#AE7F4F" transform="translate(100,33)"/>
<path d="M0 0 C1 3 1 3 -0.25 6.1875 C-3 9 -3 9 -5.71875 9.38671875 C-8.50162784 9.3759602 -11.22968995 9.25792542 -14 9 C-13.51080078 10.43279297 -13.51080078 10.43279297 -13.01171875 11.89453125 C-10.42153288 19.53820643 -8.00074503 27.17594828 -6 35 C-7.86328125 35.6015625 -7.86328125 35.6015625 -10 36 C-12.76266666 33.94773334 -13.8405398 32.58468741 -14.75 29.25 C-14.8325 28.5075 -14.915 27.765 -15 27 C-16.98 27 -18.96 27 -21 27 C-22.32 29.97 -23.64 32.94 -25 36 C-27.8125 35.9375 -27.8125 35.9375 -31 35 C-34 29.5 -34 29.5 -34 26 C-36.883975 25.78209281 -36.883975 25.78209281 -40 27 C-41.77165873 29.8453913 -42.91376616 32.83714265 -44 36 C-44.66 36 -45.32 36 -46 36 C-44.68764148 29.63569826 -42.98780585 23.57878972 -40.875 17.4375 C-40.59785156 16.61958984 -40.32070312 15.80167969 -40.03515625 14.95898438 C-39.36094863 12.97123432 -38.68107796 10.98540651 -38 9 C-40.64 9.33 -43.28 9.66 -46 10 C-46 12.31 -46 14.62 -46 17 C-46.99 17.33 -47.98 17.66 -49 18 C-49 16.02 -49 14.04 -49 12 C-51.64 11.67 -54.28 11.34 -57 11 C-57 13.97 -57 16.94 -57 20 C-56.38125 19.34 -55.7625 18.68 -55.125 18 C-53 16 -53 16 -51 16 C-51 19.63 -51 23.26 -51 27 C-51.99 26.67 -52.98 26.34 -54 26 C-54 25.34 -54 24.68 -54 24 C-54.66 24 -55.32 24 -56 24 C-56.03738281 24.61488281 -56.07476562 25.22976562 -56.11328125 25.86328125 C-56.17902344 26.67152344 -56.24476562 27.47976562 -56.3125 28.3125 C-56.37050781 29.11300781 -56.42851563 29.91351563 -56.48828125 30.73828125 C-57.08206694 33.36272334 -57.95780294 34.30820672 -60 36 C-60.99 35.67 -61.98 35.34 -63 35 C-63 26.42 -63 17.84 -63 9 C-56.565 8.505 -56.565 8.505 -50 8 C-50.66 6.35 -51.32 4.7 -52 3 C-26.755 2.505 -26.755 2.505 -1 2 C-0.67 1.34 -0.34 0.68 0 0 Z M-33 9 C-32.14669843 14.15761978 -32.14669843 14.15761978 -30.80859375 19.0859375 C-30.47504883 20.13974609 -30.47504883 20.13974609 -30.13476562 21.21484375 C-29.90466797 21.92769531 -29.67457031 22.64054687 -29.4375 23.375 C-29.20353516 24.11105469 -28.96957031 24.84710938 -28.72851562 25.60546875 C-28.1559972 27.40481238 -27.57850686 29.20257277 -27 31 C-23.9867293 27.54490075 -22.68384196 23.73381907 -21.3125 19.4375 C-21.08755859 18.76525391 -20.86261719 18.09300781 -20.63085938 17.40039062 C-19.67800378 14.4838995 -19 12.08765809 -19 9 C-23.62 9 -28.24 9 -33 9 Z M-38 16 C-38.33 18.31 -38.66 20.62 -39 23 C-37.68 23 -36.36 23 -35 23 C-35.57452746 19.06924356 -35.57452746 19.06924356 -38 16 Z M-19 17 C-19.33 18.98 -19.66 20.96 -20 23 C-18.68 23 -17.36 23 -16 23 C-16.66 21.02 -17.32 19.04 -18 17 C-18.33 17 -18.66 17 -19 17 Z " fill="#C09161" transform="translate(116,78)"/>
<path d="M0 0 C0.99 0 1.98 0 3 0 C3.99 2.97 4.98 5.94 6 9 C7.051875 8.01 7.051875 8.01 8.125 7 C11.46043144 4.67969987 13.02711547 4.55856839 17 5 C17.66 5.33 18.32 5.66 19 6 C17.125 11.75 17.125 11.75 16 14 C15.236875 14.144375 14.47375 14.28875 13.6875 14.4375 C10.94265896 14.81200937 10.94265896 14.81200937 8.9375 16.5625 C7 18 7 18 3 18 C2.855625 18.969375 2.71125 19.93875 2.5625 20.9375 C2 24 2 24 1 25 C-0.41570123 25.08651611 -1.835595 25.10704904 -3.25390625 25.09765625 C-4.10791016 25.09443359 -4.96191406 25.09121094 -5.84179688 25.08789062 C-7.18854492 25.07532227 -7.18854492 25.07532227 -8.5625 25.0625 C-9.46419922 25.05798828 -10.36589844 25.05347656 -11.29492188 25.04882812 C-13.53001314 25.03700225 -15.76497437 25.0205222 -18 25 C-20.12999997 21.20960634 -20.16702456 18.34263862 -20 14 C-20.66 14.165 -21.32 14.33 -22 14.5 C-25.73099794 15.12183299 -29.21873378 15.06408926 -33 15 C-31.68 14.67 -30.36 14.34 -29 14 C-29 12.68 -29 11.36 -29 10 C-28.01 10.33 -27.02 10.66 -26 11 C-26 11.66 -26 12.32 -26 13 C-21.65815798 12.81535634 -21.65815798 12.81535634 -18 11 C-16.33382885 10.95936168 -14.66611905 10.957279 -13 11 C-12.896875 10.05125 -12.79375 9.1025 -12.6875 8.125 C-12 5 -12 5 -9 3 C-6.3125 2.875 -6.3125 2.875 -4 3 C-3.67 3.66 -3.34 4.32 -3 5 C-2.34 5 -1.68 5 -1 5 C-0.67 3.35 -0.34 1.7 0 0 Z " fill="#8BB53F" transform="translate(100,33)"/>
<path d="M0 0 C2.01855469 0.10913086 2.01855469 0.10913086 4 1 C5.00488281 2.85766602 5.00488281 2.85766602 5.703125 5.25390625 C5.9609375 6.10791016 6.21875 6.96191406 6.484375 7.84179688 C6.73703125 8.73962891 6.9896875 9.63746094 7.25 10.5625 C7.518125 11.46419922 7.78625 12.36589844 8.0625 13.29492188 C8.72354938 15.52596354 9.36853204 17.76044003 10 20 C12.7139104 17.2860896 13.38900846 14.14123941 14.5 10.5625 C15.69211111 6.74413199 16.75581937 3.36627094 19 0 C20.32 0 21.64 0 23 0 C25.9375631 8.60369272 28.74603165 17.185701 31 26 C29.13671875 26.6015625 29.13671875 26.6015625 27 27 C24.23733334 24.94773334 23.1594602 23.58468741 22.25 20.25 C22.12625 19.13625 22.12625 19.13625 22 18 C20.02 18 18.04 18 16 18 C14.02 22.455 14.02 22.455 12 27 C9.1875 26.9375 9.1875 26.9375 6 26 C3 20.5 3 20.5 3 17 C0.116025 16.78209281 0.116025 16.78209281 -3 18 C-4.77165873 20.8453913 -5.91376616 23.83714265 -7 27 C-7.66 27 -8.32 27 -9 27 C-7.83584574 21.07339649 -6.26998043 15.33189953 -4.5 9.5625 C-4.28641846 8.85222656 -4.07283691 8.14195313 -3.8527832 7.41015625 C-2.23850786 2.23850786 -2.23850786 2.23850786 0 0 Z M-1 7 C-1.33 9.31 -1.66 11.62 -2 14 C-0.68 14 0.64 14 2 14 C1.42547254 10.06924356 1.42547254 10.06924356 -1 7 Z M18 8 C17.67 9.98 17.34 11.96 17 14 C18.32 14 19.64 14 21 14 C20.34 12.02 19.68 10.04 19 8 C18.67 8 18.34 8 18 8 Z " fill="#DB4E43" transform="translate(79,87)"/>
<path d="M0 0 C3.2578125 -0.29296875 3.2578125 -0.29296875 7.125 -0.1875 C9.04699219 -0.14689453 9.04699219 -0.14689453 11.0078125 -0.10546875 C11.99523437 -0.07066406 12.98265625 -0.03585938 14 0 C14.144375 1.0725 14.28875 2.145 14.4375 3.25 C14.83889973 5.92599819 15.31517393 8.39881191 16 11 C16.55985596 10.97381592 17.11971191 10.94763184 17.6965332 10.9206543 C20.23490294 10.81667669 22.77282553 10.7516795 25.3125 10.6875 C26.63411133 10.6246582 26.63411133 10.6246582 27.98242188 10.56054688 C30.41853111 10.51423301 32.61030827 10.51861084 35 11 C38 14.50092764 38 14.50092764 38 17 C22.16 17 6.32 17 -10 17 C-10 12 -10 12 -8 10 C-4.875 9.875 -4.875 9.875 -2 10 C-2.04125 8.906875 -2.0825 7.81375 -2.125 6.6875 C-2 3 -2 3 0 0 Z " fill="#BD8B56" transform="translate(66,47)"/>
<path d="M0 0 C0.33 0 0.66 0 1 0 C1.495 2.475 1.495 2.475 2 5 C3.11375 4.690625 3.11375 4.690625 4.25 4.375 C7 4 7 4 11 6 C10.67 9.96 10.34 13.92 10 18 C9.34 18 8.68 18 8 18 C7.505 20.475 7.505 20.475 7 23 C6.34 23 5.68 23 5 23 C5 24.32 5 25.64 5 27 C3.68 27 2.36 27 1 27 C1 25.68 1 24.36 1 23 C-1.83962421 22.0534586 -3.70406529 21.85005776 -6.6550293 21.79467773 C-7.59577805 21.77473251 -8.53652679 21.75478729 -9.50578308 21.73423767 C-10.51836685 21.71752518 -11.53095062 21.70081268 -12.57421875 21.68359375 C-13.61318802 21.66281265 -14.65215729 21.64203156 -15.72261047 21.62062073 C-19.04417253 21.55519344 -22.36581416 21.49627179 -25.6875 21.4375 C-27.9381593 21.39430831 -30.18881052 21.35069381 -32.43945312 21.30664062 C-37.9595511 21.19951902 -43.47972837 21.09773984 -49 21 C-49 20.34 -49 19.68 -49 19 C-26.23 18.505 -26.23 18.505 -3 18 C-3.66 16.02 -4.32 14.04 -5 12 C-4.125 8.125 -4.125 8.125 -3 5 C-2.01 5 -1.02 5 0 5 C0 3.35 0 1.7 0 0 Z " fill="#6C345B" transform="translate(106,45)"/>
<path d="M0 0 C1.06347656 -0.00515625 2.12695312 -0.0103125 3.22265625 -0.015625 C5.9375 0.25 5.9375 0.25 7.9375 2.25 C8.0625 5.875 8.0625 5.875 7.9375 9.25 C6.9475 8.92 5.9575 8.59 4.9375 8.25 C4.5353125 7.26 4.5353125 7.26 4.125 6.25 C3.733125 5.59 3.34125 4.93 2.9375 4.25 C-0.12158413 3.43415432 -0.12158413 3.43415432 -3.0625 3.25 C-3.0625 4.9 -3.0625 6.55 -3.0625 8.25 C-1.4846875 8.5903125 -1.4846875 8.5903125 0.125 8.9375 C4.17340879 10.13062861 6.43224227 11.75782255 8.9375 15.25 C9.68915092 18.32382451 9.45580739 19.98466342 8.9375 23.25 C7.0625 25.75 7.0625 25.75 3.9375 27.25 C-4.38732455 28.40327983 -4.38732455 28.40327983 -7.85546875 26.015625 C-9.42235649 23.72360799 -9.36956842 22.31257367 -9.25 19.5625 C-9.22292969 18.75425781 -9.19585937 17.94601563 -9.16796875 17.11328125 C-9.13316406 16.49839844 -9.09835938 15.88351563 -9.0625 15.25 C-8.4025 15.25 -7.7425 15.25 -7.0625 15.25 C-6.588125 16.384375 -6.11375 17.51875 -5.625 18.6875 C-4.42627917 22.00740166 -4.42627917 22.00740166 -3.0625 23.25 C-1.39632885 23.29063832 0.27138095 23.292721 1.9375 23.25 C2.35023343 20.88483055 2.35023343 20.88483055 1.9375 18.25 C-0.21527672 16.40463843 -0.21527672 16.40463843 -3 15.0625 C-7.98483941 12.40532119 -7.98483941 12.40532119 -9.0625 10.25 C-9.265625 8.375 -9.265625 8.375 -9.3125 6.25 C-9.33828125 5.54875 -9.3640625 4.8475 -9.390625 4.125 C-9.28234375 3.50625 -9.1740625 2.8875 -9.0625 2.25 C-5.58864567 -0.06590289 -4.09819994 -0.01991835 0 0 Z " fill="#DD4B41" transform="translate(119.0625,86.75)"/>
<path d="M0 0 C0.99 0 1.98 0 3 0 C3.99 2.97 4.98 5.94 6 9 C6.70125 8.34 7.4025 7.68 8.125 7 C11.46043144 4.67969987 13.02711547 4.55856839 17 5 C17.66 5.33 18.32 5.66 19 6 C17.125 11.75 17.125 11.75 16 14 C15.236875 14.144375 14.47375 14.28875 13.6875 14.4375 C10.94265896 14.81200937 10.94265896 14.81200937 8.9375 16.5625 C7 18 7 18 3 18 C2.855625 18.969375 2.71125 19.93875 2.5625 20.9375 C2 24 2 24 1 25 C-0.99958364 25.04080783 -3.00045254 25.04254356 -5 25 C-4.835 24.484375 -4.67 23.96875 -4.5 23.4375 C-3.83416874 20.19157262 -3.75966824 17.30456168 -4 14 C-5.35429841 12.05630262 -5.35429841 12.05630262 -7 11 C-6.34 11 -5.68 11 -5 11 C-4.7834375 10.071875 -4.7834375 10.071875 -4.5625 9.125 C-4 7 -4 7 -3 5 C-2.34 5 -1.68 5 -1 5 C-0.67 3.35 -0.34 1.7 0 0 Z " fill="#F4C343" transform="translate(100,33)"/>
<path d="M0 0 C6.63851606 -0.07596686 13.27692035 -0.12856456 19.91577148 -0.16479492 C22.17492868 -0.17989602 24.43405649 -0.20037842 26.69311523 -0.22631836 C29.93741093 -0.26264308 33.18131956 -0.27971308 36.42578125 -0.29296875 C37.43836502 -0.30845261 38.45094879 -0.32393646 39.49421692 -0.33988953 C40.90534004 -0.34022942 40.90534004 -0.34022942 42.3449707 -0.34057617 C43.17325882 -0.34723801 44.00154694 -0.35389984 44.85493469 -0.36076355 C47.47210321 0.07939974 48.34755537 0.9790154 50 3 C49.67 3.66 49.34 4.32 49 5 C34.48 5 19.96 5 5 5 C5.99 6.32 6.98 7.64 8 9 C7.34 10.32 6.68 11.64 6 13 C5.32645501 11.56570999 4.66140299 10.12742943 4 8.6875 C3.443125 7.48673828 3.443125 7.48673828 2.875 6.26171875 C2 4 2 4 2 1 C1.34 0.67 0.68 0.34 0 0 Z " fill="#BC8C5B" transform="translate(57,66)"/>
<path d="M0 0 C3.375 -0.125 3.375 -0.125 7 0 C9 2 9 2 9.125 4.625 C9.08375 5.40875 9.0425 6.1925 9 7 C8.34 7 7.68 7 7 7 C6.814375 7.8353125 6.814375 7.8353125 6.625 8.6875 C6 11 6 11 4 16 C-15.14 16 -34.28 16 -54 16 C-54 15.34 -54 14.68 -54 14 C-39.48 14 -24.96 14 -10 14 C-9.67 13.34 -9.34 12.68 -9 12 C-9 12.99 -9 13.98 -9 15 C-7.68 15 -6.36 15 -5 15 C-5 13.68 -5 12.36 -5 11 C-4.34 10.67 -3.68 10.34 -3 10 C-2.34786708 7.97536745 -2.34786708 7.97536745 -2 6 C-1.34 6 -0.68 6 0 6 C0 4.02 0 2.04 0 0 Z " fill="#8A5B3A" transform="translate(116,57)"/>
<path d="M0 0 C3.9290625 -0.0309375 3.9290625 -0.0309375 7.9375 -0.0625 C8.7637085 -0.071604 9.58991699 -0.08070801 10.44116211 -0.09008789 C12.29433759 -0.09723945 14.14749308 -0.0502852 16 0 C17 1 17 1 17.0625 4.5625 C17.041875 5.696875 17.02125 6.83125 17 8 C16.01 8.33 15.02 8.66 14 9 C14 7.02 14 5.04 14 3 C11.36 2.67 8.72 2.34 6 2 C6 4.97 6 7.94 6 11 C6.61875 10.34 7.2375 9.68 7.875 9 C10 7 10 7 12 7 C12 10.63 12 14.26 12 18 C11.01 17.67 10.02 17.34 9 17 C9 16.34 9 15.68 9 15 C8.34 15 7.68 15 7 15 C6.96261719 15.61488281 6.92523438 16.22976562 6.88671875 16.86328125 C6.82097656 17.67152344 6.75523438 18.47976562 6.6875 19.3125 C6.62949219 20.11300781 6.57148437 20.91351563 6.51171875 21.73828125 C5.91793306 24.36272334 5.04219706 25.30820672 3 27 C2.01 26.67 1.02 26.34 0 26 C0 17.42 0 8.84 0 0 Z " fill="#D73C32" transform="translate(53,87)"/>
<path d="M0 0 C1.98 0 3.96 0 6 0 C6 0.66 6 1.32 6 2 C10.62 2 15.24 2 20 2 C20 1.34 20 0.68 20 0 C20.66 0 21.32 0 22 0 C22 0.66 22 1.32 22 2 C25.63 2 29.26 2 33 2 C34 5 34 5 33 9 C27.39 9 21.78 9 16 9 C15.67 8.01 15.34 7.02 15 6 C14.01 7.485 14.01 7.485 13 9 C9.9609375 9.29296875 9.9609375 9.29296875 6.375 9.1875 C5.18648438 9.16042969 3.99796875 9.13335937 2.7734375 9.10546875 C1.85820313 9.07066406 0.94296875 9.03585938 0 9 C-0.76286236 5.59254812 -1.11667279 3.35001838 0 0 Z M25 4 C26 7 26 7 26 7 Z M8 5 C9 7 9 7 9 7 Z M30 5 C31 7 31 7 31 7 Z " fill="#6AAD4E" transform="translate(96,116)"/>
<path d="M0 0 C4.62 0 9.24 0 14 0 C14.33 3.63 14.66 7.26 15 11 C10.05 11 5.1 11 0 11 C0 7.37 0 3.74 0 0 Z " fill="#CB2433" transform="translate(66,47)"/>
<path d="M0 0 C1.65 0 3.3 0 5 0 C5 0.66 5 1.32 5 2 C5.94875 1.835 6.8975 1.67 7.875 1.5 C11 1 11 1 13 1 C13.33 0.67 13.66 0.34 14 0 C15.99958364 -0.04080783 18.00045254 -0.04254356 20 0 C21.06546953 3.1964086 21.07427838 5.65747276 21 9 C15.66666667 9 10.33333333 9 5 9 C4.67 8.34 4.34 7.68 4 7 C3.34 7 2.68 7 2 7 C2 7.66 2 8.32 2 9 C1.34 9 0.68 9 0 9 C0 6.03 0 3.06 0 0 Z " fill="#67AD4A" transform="translate(50,116)"/>
<path d="M0 0 C1.98 0 3.96 0 6 0 C6 0.66 6 1.32 6 2 C8.64 2 11.28 2 14 2 C13.67 4.31 13.34 6.62 13 9 C8.71 9 4.42 9 0 9 C-1.125 3.375 -1.125 3.375 0 0 Z M8 5 C9 7 9 7 9 7 Z " fill="#69A84C" transform="translate(96,116)"/>
<path d="M0 0 C0.66 0.33 1.32 0.66 2 1 C0.125 6.75 0.125 6.75 -1 9 C-2.1446875 9.2165625 -2.1446875 9.2165625 -3.3125 9.4375 C-6.26109198 10.05464716 -7.73296884 11.06882531 -10 13 C-10.99 12.34 -11.98 11.68 -13 11 C-12.80442984 6.79524165 -12.23756256 5.25413669 -9.3125 2.125 C-5.72587185 -0.17585579 -4.15780044 -0.56697279 0 0 Z " fill="#93A66F" transform="translate(117,38)"/>
<path d="M0 0 C3.375 -0.125 3.375 -0.125 7 0 C9 2 9 2 9.125 4.625 C9.08375 5.40875 9.0425 6.1925 9 7 C8.34 7 7.68 7 7 7 C6.87625 7.556875 6.7525 8.11375 6.625 8.6875 C5.94023145 11.22114364 5.00866237 13.57921032 4 16 C3.67 15.34 3.34 14.68 3 14 C1.02 14 -0.96 14 -3 14 C-2.375 12.0625 -2.375 12.0625 -1 10 C2.0625 9.375 2.0625 9.375 5 9 C5.33 8.34 5.66 7.68 6 7 C3.69 7 1.38 7 -1 7 C-0.67 4.69 -0.34 2.38 0 0 Z " fill="#C49A71" transform="translate(116,57)"/>
<path d="M0 0 C0.99 0 1.98 0 3 0 C3.33 0.66 3.66 1.32 4 2 C5.65 2 7.3 2 9 2 C9.38133299 3.9914056 9.71325582 5.99279077 10 8 C9 9 9 9 5.625 9.0625 C4.42875 9.041875 3.2325 9.02125 2 9 C1.01 9 0.02 9 -1 9 C-1.66 9 -2.32 9 -3 9 C-2.01 6.03 -1.02 3.06 0 0 Z " fill="#6CAC50" transform="translate(75,116)"/>
<path d="M0 0 C0.66 0 1.32 0 2 0 C2.474375 1.134375 2.94875 2.26875 3.4375 3.4375 C4.63622083 6.75740166 4.63622083 6.75740166 6 8 C7.66617115 8.04063832 9.33388095 8.042721 11 8 C11.33 6.35 11.66 4.7 12 3 C12.33 3 12.66 3 13 3 C13.04254356 4.99954746 13.04080783 7.00041636 13 9 C12.67 9.33 12.34 9.66 12 10 C10.865625 9.979375 9.73125 9.95875 8.5625 9.9375 C4.94857727 9.58835972 4.94857727 9.58835972 3 12 C0.89366282 10.29171079 0.06198392 9.47851584 -0.29296875 6.73828125 C-0.25816406 5.93777344 -0.22335938 5.13726562 -0.1875 4.3125 C-0.16042969 3.50425781 -0.13335937 2.69601563 -0.10546875 1.86328125 C-0.07066406 1.24839844 -0.03585938 0.63351563 0 0 Z " fill="#DD7067" transform="translate(110,102)"/>
<path d="M0 0 C1.98 0 3.96 0 6 0 C7.06546953 3.1964086 7.07427838 5.65747276 7 9 C4.69 9 2.38 9 0 9 C0 6.03 0 3.06 0 0 Z " fill="#5EAB3F" transform="translate(64,116)"/>
<path d="M0 0 C0.66 1.32 1.32 2.64 2 4 C1.34 4 0.68 4 0 4 C0.226875 4.86625 0.45375 5.7325 0.6875 6.625 C1.0632763 10.68338409 0.05257931 12.55166676 -2 16 C-4.97 15.505 -4.97 15.505 -8 15 C-7.01 14.67 -6.02 14.34 -5 14 C-5 12.35 -5 10.7 -5 9 C-4.34 9 -3.68 9 -3 9 C-2.01 6.03 -1.02 3.06 0 0 Z " fill="#E24D45" transform="translate(93,98)"/>
<path d="M0 0 C0.04241723 2.33294775 0.04092937 4.66702567 0 7 C-1 8 -1 8 -3.4375 8.125 C-6 8 -6 8 -8 7 C-8.1875 4.625 -8.1875 4.625 -8 2 C-4.76674728 -0.15550181 -3.68800782 0 0 0 Z " fill="#7AB75D" transform="translate(65,117)"/>
<path d="M0 0 C0.66 0 1.32 0 2 0 C2.33 0.99 2.66 1.98 3 3 C2.01 3 1.02 3 0 3 C-0.33 4.98 -0.66 6.96 -1 9 C-1.99 9 -2.98 9 -4 9 C-4.33 8.01 -4.66 7.02 -5 6 C-5.66 6.66 -6.32 7.32 -7 8 C-7.042721 6.33388095 -7.04063832 4.66617115 -7 3 C-6 2 -6 2 -2.9375 1.9375 C-1.4834375 1.9684375 -1.4834375 1.9684375 0 2 C0 1.34 0 0.68 0 0 Z " fill="#80B969" transform="translate(116,116)"/>
<path d="M0 0 C0 3.63 0 7.26 0 11 C-0.99 10.67 -1.98 10.34 -3 10 C-3 9.34 -3 8.68 -3 8 C-3.99 7.67 -4.98 7.34 -6 7 C-6 4 -6 4 -4.125 1.8125 C-2 0 -2 0 0 0 Z " fill="#DD5E55" transform="translate(65,94)"/>
<path d="M0 0 C-0.33 2.64 -0.66 5.28 -1 8 C-1.66 7.67 -2.32 7.34 -3 7 C-3 5.68 -3 4.36 -3 3 C-3.45375 3.495 -3.9075 3.99 -4.375 4.5 C-6 6 -6 6 -8 6 C-8 6.99 -8 7.98 -8 9 C-10.31 9.33 -12.62 9.66 -15 10 C-14.67 9.34 -14.34 8.68 -14 8 C-12.35 8 -10.7 8 -9 8 C-8.8453125 6.576875 -8.8453125 6.576875 -8.6875 5.125 C-7.5463369 -0.062105 -4.75621621 -0.25709277 0 0 Z " fill="#A3BD7C" transform="translate(96,36)"/>
<path d="M0 0 C0.99 0.33 1.98 0.66 3 1 C3.73046875 2.84765625 3.73046875 2.84765625 4.1875 5.0625 C4.34605469 5.79597656 4.50460938 6.52945313 4.66796875 7.28515625 C4.83232422 8.13400391 4.83232422 8.13400391 5 9 C4.236875 8.814375 3.47375 8.62875 2.6875 8.4375 C-0.08967375 7.77180827 -0.08967375 7.77180827 -3 9 C-2.01 6.03 -1.02 3.06 0 0 Z " fill="#66A14C" transform="translate(89,116)"/>
<path d="M0 0 C1.98 0 3.96 0 6 0 C5.10498283 4.32591633 3.76502911 6.4899806 0 9 C-0.84454356 5.62182575 -1.10844919 3.32534757 0 0 Z " fill="#74B056" transform="translate(96,116)"/>
<path d="M0 0 C0.33 0 0.66 0 1 0 C1.33 2.97 1.66 5.94 2 9 C-0.31 10.65 -2.62 12.3 -5 14 C-4.67 11.36 -4.34 8.72 -4 6 C-2.68 5.67 -1.36 5.34 0 5 C0 3.35 0 1.7 0 0 Z " fill="#663058" transform="translate(106,45)"/>
<path d="M0 0 C2.64 0.33 5.28 0.66 8 1 C7.67 1.99 7.34 2.98 7 4 C4.67793475 4.70491267 2.34406932 5.37212429 0 6 C-0.33 6.66 -0.66 7.32 -1 8 C0.98 8 2.96 8 5 8 C5 8.33 5 8.66 5 9 C2.69 9 0.38 9 -2 9 C-1.41196203 5.97580475 -0.77321882 2.98241547 0 0 Z " fill="#986945" transform="translate(114,63)"/>
<path d="M0 0 C0 2.31 0 4.62 0 7 C-0.99 7.33 -1.98 7.66 -3 8 C-3 6.02 -3 4.04 -3 2 C-5.97 1.67 -8.94 1.34 -12 1 C-12 0.67 -12 0.34 -12 0 C-10.56359829 -0.19573608 -9.12580496 -0.38127816 -7.6875 -0.5625 C-6.88699219 -0.66691406 -6.08648437 -0.77132812 -5.26171875 -0.87890625 C-3 -1 -3 -1 0 0 Z " fill="#DE574F" transform="translate(70,88)"/>
<path d="M0 0 C1.65 0 3.3 0 5 0 C6.04449911 3.13349732 5.93423645 3.98968256 5 7 C3.35 7 1.7 7 0 7 C0 4.69 0 2.38 0 0 Z M2 3 C3 5 3 5 3 5 Z " fill="#72B056" transform="translate(124,118)"/>
<path d="M0 0 C3.875 0.875 3.875 0.875 5 2 C5.04092937 4.33297433 5.04241723 6.66705225 5 9 C2 8 2 8 0.9375 6.0625 C0.628125 5.381875 0.31875 4.70125 0 4 C-0.66 3.34 -1.32 2.68 -2 2 C-1.34 2 -0.68 2 0 2 C0 1.34 0 0.68 0 0 Z " fill="#E26B63" transform="translate(122,87)"/>
<path d="M0 0 C-0.99 1.98 -1.98 3.96 -3 6 C-3.33 5.34 -3.66 4.68 -4 4 C-5.98 4 -7.96 4 -10 4 C-9.375 2.0625 -9.375 2.0625 -8 0 C-2.81081081 -1.40540541 -2.81081081 -1.40540541 0 0 Z " fill="#C09568" transform="translate(123,67)"/>
<path d="M0 0 C0.33 0 0.66 0 1 0 C1 3.63 1 7.26 1 11 C-1.97 11 -4.94 11 -8 11 C-7.67 10.34 -7.34 9.68 -7 9 C-5.02 9 -3.04 9 -1 9 C-1.020625 7.88625 -1.04125 6.7725 -1.0625 5.625 C-1 2 -1 2 0 0 Z " fill="#CF8B80" transform="translate(65,48)"/>
<path d="M0 0 C0.33 0.99 0.66 1.98 1 3 C1.66 3.33 2.32 3.66 3 4 C1.02 8.455 1.02 8.455 -1 13 C-1.66 13 -2.32 13 -3 13 C-2.68817931 11.58318366 -2.37551263 10.16655349 -2.0625 8.75 C-1.88847656 7.96109375 -1.71445313 7.1721875 -1.53515625 6.359375 C-1.052444 4.23121297 -0.53836822 2.11467158 0 0 Z " fill="#E36359" transform="translate(73,101)"/>
<path d="M0 0 C1.5625 1.5625 1.5625 1.5625 3 4 C2.6875 7.75 2.6875 7.75 2 11 C1.01 11 0.02 11 -1 11 C-1.02688151 9.35425434 -1.04634123 7.70838587 -1.0625 6.0625 C-1.07410156 5.14597656 -1.08570312 4.22945312 -1.09765625 3.28515625 C-1 1 -1 1 0 0 Z " fill="#F7D359" transform="translate(103,38)"/>
<path d="M0 0 C0.99 1.32 1.98 2.64 3 4 C2.09456151 6.71631546 1.07525194 9.34771188 0 12 C-0.99 11.67 -1.98 11.34 -3 11 C-2.01 7.37 -1.02 3.74 0 0 Z " fill="#E27068" transform="translate(77,89)"/>
<path d="M0 0 C0.33 1.32 0.66 2.64 1 4 C2.32 4 3.64 4 5 4 C5.33 4.99 5.66 5.98 6 7 C3.36 7.33 0.72 7.66 -2 8 C-1.125 1.125 -1.125 1.125 0 0 Z " fill="#D8443C" transform="translate(95,97)"/>
<path d="M0 0 C0.99 0 1.98 0 3 0 C2.47731534 2.76276177 1.89130413 5.3260876 1 8 C-0.32 8.33 -1.64 8.66 -3 9 C-2.01 6.03 -1.02 3.06 0 0 Z " fill="#7BAF65" transform="translate(75,116)"/>
<path d="M0 0 C0.99 0.33 1.98 0.66 3 1 C3 1.66 3 2.32 3 3 C5.31 3 7.62 3 10 3 C9.67 3.66 9.34 4.32 9 5 C4.71 5 0.42 5 -4 5 C-2.68 4.67 -1.36 4.34 0 4 C0 2.68 0 1.36 0 0 Z " fill="#B58883" transform="translate(71,43)"/>
<path d="M0 0 C1 3 1 3 0.375 5.125 C-1 7 -1 7 -3.625 7.75 C-4.800625 7.87375 -4.800625 7.87375 -6 8 C-6 5 -6 5 -4.6875 3.61328125 C-3.125 2.40885417 -1.5625 1.20442708 0 0 Z " fill="#678E39" transform="translate(94,37)"/>
<path d="M0 0 C-0.33 1.65 -0.66 3.3 -1 5 C-2.98 5 -4.96 5 -7 5 C-6.1875 3.0625 -6.1875 3.0625 -5 1 C-2 0 -2 0 0 0 Z " fill="#8BB547" transform="translate(117,41)"/>
<path d="M0 0 C0.66 1.32 1.32 2.64 2 4 C1.34 4 0.68 4 0 4 C0.20625 4.94875 0.4125 5.8975 0.625 6.875 C0.74875 7.90625 0.8725 8.9375 1 10 C0.34 10.66 -0.32 11.32 -1 12 C-1.66 11.67 -2.32 11.34 -3 11 C-2.01 7.37 -1.02 3.74 0 0 Z " fill="#E4736C" transform="translate(93,98)"/>
<path d="M0 0 C0.99 0.33 1.98 0.66 3 1 C2.34 3.31 1.68 5.62 1 8 C-0.32 8.33 -1.64 8.66 -3 9 C-2.01 6.03 -1.02 3.06 0 0 Z " fill="#F2C840" transform="translate(101,49)"/>
<path d="M0 0 C1.65 0 3.3 0 5 0 C5 1.65 5 3.3 5 5 C3.68 5 2.36 5 1 5 C0.67 3.35 0.34 1.7 0 0 Z " fill="#5AA83E" transform="translate(79,118)"/>
<path d="M0 0 C1.5625 1.8125 1.5625 1.8125 3 4 C2.67 4.99 2.34 5.98 2 7 C0.35 6.67 -1.3 6.34 -3 6 C-3.33 5.01 -3.66 4.02 -4 3 C-3.34 3 -2.68 3 -2 3 C-2 3.66 -2 4.32 -2 5 C-1.34 5 -0.68 5 0 5 C0 3.35 0 1.7 0 0 Z " fill="#E46963" transform="translate(107,107)"/>
<path d="M0 0 C0 1.32 0 2.64 0 4 C-0.66 4 -1.32 4 -2 4 C-2 4.66 -2 5.32 -2 6 C-3.32 6 -4.64 6 -6 6 C-6 5.34 -6 4.68 -6 4 C-5.01 4 -4.02 4 -3 4 C-3.33 3.01 -3.66 2.02 -4 1 C-2 0 -2 0 0 0 Z " fill="#4E9A2E" transform="translate(103,119)"/>
<path d="M0 0 C0.66 0 1.32 0 2 0 C2.33 2.97 2.66 5.94 3 9 C2.01 9 1.02 9 0 9 C0 6.03 0 3.06 0 0 Z " fill="#DA4C42" transform="translate(110,102)"/>
<path d="M0 0 C0.66 0.33 1.32 0.66 2 1 C1.34 3.31 0.68 5.62 0 8 C-0.66 7.67 -1.32 7.34 -2 7 C-2.125 4.625 -2.125 4.625 -2 2 C-1.34 1.34 -0.68 0.68 0 0 Z " fill="#F8CE3E" transform="translate(98,40)"/>
<path d="M0 0 C0.99 0 1.98 0 3 0 C3 1.98 3 3.96 3 6 C2.01 6 1.02 6 0 6 C0 4.02 0 2.04 0 0 Z " fill="#7B604A" transform="translate(100,33)"/>
</svg>
