<?xml version="1.0" encoding="UTF-8"?>
<svg version="1.1" xmlns="http://www.w3.org/2000/svg" width="16" height="16">
<path d="M0 0 C1.2065625 0.0309375 1.2065625 0.0309375 2.4375 0.0625 C3.34808531 3.13572544 3.52636184 5.86347361 3.4375 9.0625 C0.7975 9.0625 -1.8425 9.0625 -4.5625 9.0625 C-3.56521739 0.08695652 -3.56521739 0.08695652 0 0 Z " fill="#997035" transform="translate(8.5625,2.9375)"/>
<path d="M0 0 C1.65 0 3.3 0 5 0 C5.33 0.99 5.66 1.98 6 3 C5.67 3.66 5.34 4.32 5 5 C3.02 5 1.04 5 -1 5 C-0.67 3.35 -0.34 1.7 0 0 Z " fill="#A97C54" transform="translate(6,3)"/>
</svg>
