<?xml version="1.0" encoding="UTF-8"?>
<svg version="1.1" xmlns="http://www.w3.org/2000/svg" width="32" height="32">
<path d="M0 0 C0 1.32 0 2.64 0 4 C0.66 4 1.32 4 2 4 C1.814375 4.639375 1.62875 5.27875 1.4375 5.9375 C1.293125 6.618125 1.14875 7.29875 1 8 C1.33 8.33 1.66 8.66 2 9 C2.14115161 11.67058851 2.04247107 14.32432238 2 17 C-2.95 17 -7.9 17 -13 17 C-12.67 14.36 -12.34 11.72 -12 9 C-11.34 9 -10.68 9 -10 9 C-10.226875 8.236875 -10.45375 7.47375 -10.6875 6.6875 C-11 4 -11 4 -9.6875 2.25 C-6.38917938 -0.19320046 -4.05110275 -0.08806745 0 0 Z " fill="#A15F4F" transform="translate(21,6)"/>
<path d="M0 0 C1.19625 0.185625 2.3925 0.37125 3.625 0.5625 C7.28283707 1.0311197 10.37862166 0.81481013 14 0 C14 2.64 14 5.28 14 8 C9.05 8 4.1 8 -1 8 C-0.67 5.36 -0.34 2.72 0 0 Z " fill="#DA473D" transform="translate(9,15)"/>
<path d="M0 0 C2.12493141 -0.02693575 4.24995912 -0.04636628 6.375 -0.0625 C7.55835938 -0.07410156 8.74171875 -0.08570312 9.9609375 -0.09765625 C13 0 13 0 15 1 C15 1.66 15 2.32 15 3 C10.05 3 5.1 3 0 3 C0 2.01 0 1.02 0 0 Z " fill="#53AD38" transform="translate(8,20)"/>
<path d="M0 0 C0.66 0 1.32 0 2 0 C1.07848289 3.18342275 0.55151644 4.65716546 -2.3125 6.4375 C-5.57128676 7.11957165 -7.0831097 6.50011501 -10 5 C-10 4.34 -10 3.68 -10 3 C-7.03 3 -4.06 3 -1 3 C-0.67 2.01 -0.34 1.02 0 0 Z " fill="#B8854D" transform="translate(21,10)"/>
<path d="M0 0 C0 1.65 0 3.3 0 5 C-1.875 5.625 -1.875 5.625 -4 6 C-4.66 5.34 -5.32 4.68 -6 4 C-6 3.01 -6 2.02 -6 1 C-3 0 -3 0 0 0 Z " fill="#DE3C33" transform="translate(23,15)"/>
<path d="M0 0 C1.98 0 3.96 0 6 0 C6 0.99 6 1.98 6 3 C5.01 3 4.02 3 3 3 C2.67 3.66 2.34 4.32 2 5 C1.01 4.34 0.02 3.68 -1 3 C-0.67 2.01 -0.34 1.02 0 0 Z " fill="#A3AA4F" transform="translate(15,6)"/>
<path d="M0 0 C5.75 -0.125 5.75 -0.125 8 1 C8 1.66 8 2.32 8 3 C5.69 3 3.38 3 1 3 C0.67 2.01 0.34 1.02 0 0 Z " fill="#619E3E" transform="translate(15,20)"/>
<path d="M0 0 C0.66 0 1.32 0 2 0 C1.67 1.32 1.34 2.64 1 4 C-2.63 4 -6.26 4 -10 4 C-10 3.67 -10 3.34 -10 3 C-7.03 3 -4.06 3 -1 3 C-0.67 2.01 -0.34 1.02 0 0 Z " fill="#BA875F" transform="translate(21,10)"/>
</svg>
